<svg width="25" height="25" viewBox="0 0 25 25" fill="none" xmlns="http://www.w3.org/2000/svg">
<g clip-path="url(#clip0_12360_69081)">
<path d="M10.625 22.8906H15.4297V25H10.625V22.8906Z" fill="#111111"/>
<path d="M7.46094 13.5703H18.0859C18.5279 13.5703 18.8906 13.9602 18.8906 14.375V21.7969C18.8906 22.2117 18.5279 22.6016 18.0859 22.6016H7.46094C7.019 22.6016 6.65625 22.2117 6.65625 21.7969V14.375C6.65625 13.9602 7.019 13.5703 7.46094 13.5703Z" fill="#F5F5F5" stroke="#0B1042" stroke-width="0.5"/>
<path d="M6.91406 0.25C10.5945 0.250001 13.5781 3.2336 13.5781 6.91406C13.5781 10.5945 10.5945 13.5781 6.91406 13.5781C3.2336 13.5781 0.250001 10.5945 0.25 6.91406C0.25 3.2336 3.2336 0.25 6.91406 0.25Z" fill="#F5F5F5" stroke="#0B1042" stroke-width="0.5"/>
<path d="M4.45312 1.84668C5.31003 1.84668 6.00488 2.54153 6.00488 3.39844C6.00488 4.25534 5.31003 4.95019 4.45312 4.9502C3.59622 4.9502 2.90137 4.25534 2.90137 3.39844C2.90137 2.54153 3.59622 1.84668 4.45312 1.84668Z" fill="#22CB67" stroke="#0B1042" stroke-width="0.1"/>
<path d="M9.375 1.84668C10.2319 1.84668 10.9268 2.54153 10.9268 3.39844C10.9268 4.25534 10.2319 4.95019 9.375 4.9502C8.5181 4.9502 7.82324 4.25534 7.82324 3.39844C7.82324 2.54153 8.5181 1.84668 9.375 1.84668Z" fill="#22CB67" stroke="#0B1042" stroke-width="0.1"/>
<path d="M10.9375 6.37793C11.7944 6.37793 12.4893 7.07278 12.4893 7.92969C12.4893 8.78659 11.7944 9.48145 10.9375 9.48145C10.0806 9.48145 9.38574 8.78659 9.38574 7.92969C9.38574 7.07278 10.0806 6.37793 10.9375 6.37793Z" fill="#22CB67" stroke="#0B1042" stroke-width="0.1"/>
<path d="M6.91406 9.54199C7.77097 9.54199 8.46582 10.2368 8.46582 11.0938C8.46582 11.9507 7.77097 12.6455 6.91406 12.6455C6.05716 12.6455 5.36231 11.9507 5.3623 11.0938C5.3623 10.2368 6.05716 9.54199 6.91406 9.54199Z" fill="#22CB67" stroke="#0B1042" stroke-width="0.1"/>
<path d="M2.89062 6.37793C3.74753 6.37793 4.44238 7.07278 4.44238 7.92969C4.44238 8.78659 3.74753 9.48145 2.89062 9.48145C2.03372 9.48145 1.33887 8.78659 1.33887 7.92969C1.33887 7.07278 2.03372 6.37793 2.89062 6.37793Z" fill="#22CB67" stroke="#0B1042" stroke-width="0.1"/>
<path d="M6.32812 5.6748C6.51625 5.6748 6.66895 5.8275 6.66895 6.01562C6.66895 6.20375 6.51625 6.35645 6.32812 6.35645C6.14 6.35645 5.9873 6.20375 5.9873 6.01562C5.9873 5.8275 6.14 5.6748 6.32812 5.6748Z" fill="white" stroke="#0B1042" stroke-width="0.1"/>
<path d="M7.53906 5.6748C7.72718 5.6748 7.87988 5.8275 7.87988 6.01562C7.87988 6.20375 7.72718 6.35645 7.53906 6.35645C7.35094 6.35645 7.19824 6.20375 7.19824 6.01562C7.19824 5.8275 7.35094 5.6748 7.53906 5.6748Z" fill="white" stroke="#0B1042" stroke-width="0.1"/>
<path d="M7.92969 6.80762C8.11781 6.80762 8.27051 6.96032 8.27051 7.14844C8.27051 7.33656 8.11781 7.48926 7.92969 7.48926C7.74157 7.48926 7.58887 7.33656 7.58887 7.14844C7.58887 6.96032 7.74157 6.80762 7.92969 6.80762Z" fill="white" stroke="#0B1042" stroke-width="0.1"/>
<path d="M6.91406 7.58887C7.10218 7.58887 7.25488 7.74157 7.25488 7.92969C7.25488 8.11781 7.10218 8.27051 6.91406 8.27051C6.72594 8.27051 6.57324 8.11781 6.57324 7.92969C6.57324 7.74157 6.72594 7.58887 6.91406 7.58887Z" fill="white" stroke="#0B1042" stroke-width="0.1"/>
<path d="M5.89844 6.80762C6.08656 6.80762 6.23926 6.96032 6.23926 7.14844C6.23926 7.33656 6.08656 7.48926 5.89844 7.48926C5.71032 7.48926 5.55762 7.33656 5.55762 7.14844C5.55762 6.96032 5.71032 6.80762 5.89844 6.80762Z" fill="white" stroke="#0B1042" stroke-width="0.1"/>
<path d="M19.1406 2.35938C22.2386 2.35938 24.75 4.87078 24.75 7.96875C24.75 11.0667 22.2386 13.5781 19.1406 13.5781C16.0427 13.5781 13.5312 11.0667 13.5312 7.96875C13.5313 4.87078 16.0427 2.35938 19.1406 2.35938Z" fill="#F5F5F5" stroke="#0B1042" stroke-width="0.5"/>
<path d="M17.0703 3.76074C17.7762 3.76074 18.3486 4.33317 18.3486 5.03906C18.3486 5.74495 17.7762 6.31738 17.0703 6.31738C16.3644 6.31738 15.792 5.74495 15.792 5.03906C15.792 4.33317 16.3644 3.76074 17.0703 3.76074Z" fill="#22CB67" stroke="#0B1042" stroke-width="0.1"/>
<path d="M21.2109 3.72168C21.9168 3.72168 22.4893 4.29411 22.4893 5C22.4893 5.70589 21.9168 6.27832 21.2109 6.27832C20.505 6.27832 19.9326 5.70589 19.9326 5C19.9326 4.29411 20.505 3.72168 21.2109 3.72168Z" fill="#22CB67" stroke="#0B1042" stroke-width="0.1"/>
<path d="M22.5781 7.5498C23.284 7.5498 23.8564 8.12224 23.8564 8.82812C23.8564 9.53401 23.284 10.1064 22.5781 10.1064C21.8722 10.1064 21.2998 9.53401 21.2998 8.82812C21.2998 8.12224 21.8722 7.5498 22.5781 7.5498Z" fill="#22CB67" stroke="#0B1042" stroke-width="0.1"/>
<path d="M19.1406 10.2451C19.8465 10.2451 20.4189 10.8175 20.4189 11.5234C20.4189 12.2293 19.8465 12.8018 19.1406 12.8018C18.4347 12.8018 17.8623 12.2293 17.8623 11.5234C17.8623 10.8175 18.4347 10.2451 19.1406 10.2451Z" fill="#22CB67" stroke="#0B1042" stroke-width="0.1"/>
<path d="M15.7422 7.5498C16.4481 7.5498 17.0205 8.12224 17.0205 8.82812C17.0205 9.53401 16.4481 10.1064 15.7422 10.1064C15.0363 10.1064 14.4639 9.53401 14.4639 8.82812C14.4639 8.12224 15.0363 7.5498 15.7422 7.5498Z" fill="#22CB67" stroke="#0B1042" stroke-width="0.1"/>
<path d="M18.6328 6.9248C18.7994 6.9248 18.9346 7.06001 18.9346 7.22656C18.9346 7.39311 18.7994 7.52832 18.6328 7.52832C18.4663 7.52832 18.3311 7.39311 18.3311 7.22656C18.3311 7.06001 18.4663 6.92481 18.6328 6.9248Z" fill="white" stroke="#0B1042" stroke-width="0.1"/>
<path d="M19.6875 6.9248C19.854 6.9248 19.9893 7.06001 19.9893 7.22656C19.9893 7.39311 19.854 7.52832 19.6875 7.52832C19.521 7.52832 19.3857 7.39311 19.3857 7.22656C19.3857 7.06001 19.521 6.92481 19.6875 6.9248Z" fill="white" stroke="#0B1042" stroke-width="0.1"/>
<path d="M20 7.8623C20.1665 7.8623 20.3018 7.99751 20.3018 8.16406C20.3018 8.33061 20.1665 8.46582 20 8.46582C19.8335 8.46582 19.6982 8.33061 19.6982 8.16406C19.6982 7.99751 19.8335 7.86231 20 7.8623Z" fill="white" stroke="#0B1042" stroke-width="0.1"/>
<path d="M19.1406 8.56543C19.3072 8.56543 19.4424 8.70064 19.4424 8.86719C19.4424 9.03374 19.3072 9.16895 19.1406 9.16895C18.9741 9.16894 18.8389 9.03374 18.8389 8.86719C18.8389 8.70064 18.9741 8.56543 19.1406 8.56543Z" fill="white" stroke="#0B1042" stroke-width="0.1"/>
<path d="M18.3203 7.8623C18.4869 7.8623 18.6221 7.99751 18.6221 8.16406C18.6221 8.33061 18.4869 8.46582 18.3203 8.46582C18.1538 8.46582 18.0186 8.33061 18.0186 8.16406C18.0186 7.99751 18.1538 7.86231 18.3203 7.8623Z" fill="white" stroke="#0B1042" stroke-width="0.1"/>
<path d="M6.66406 18.2402V21.6426L2.90625 23.5381V16.3789L6.66406 18.2402ZM21.5469 17.2363L19.3906 16.8242V14.5791L21.5469 14.1348V17.2363Z" fill="#F3F5F8" stroke="#0B1042" stroke-width="0.5"/>
</g>
<defs>
<clipPath id="clip0_12360_69081">
<rect width="25" height="25" fill="white"/>
</clipPath>
</defs>
</svg>
